<svg width="24" height="24" viewBox="0 0 24 24" fill="none" xmlns="http://www.w3.org/2000/svg">
  <path d="M12.186 24h-.007c-3.581-.024-6.334-1.205-8.184-3.509C2.35 18.44 1.5 15.586 1.5 12.068c0-3.518.85-6.372 2.495-8.423C5.845 1.205 8.598.024 12.179 0h.007c3.581.024 6.334 1.205 8.184 3.509C22.65 5.56 23.5 8.414 23.5 11.932c0 3.518-.85 6.372-2.495 8.423C19.155 22.795 16.402 23.976 12.821 24h-.007zM12.186 1.5c-3.032.02-5.34.95-6.828 2.7C3.87 5.95 3.1 8.7 3.1 12.068c0 3.368.77 6.118 2.258 7.868 1.488 1.75 3.796 2.68 6.828 2.7 3.032-.02 5.34-.95 6.828-2.7 1.488-1.75 2.258-4.5 2.258-7.868 0-3.368-.77-6.118-2.258-7.868-1.488-1.75-3.796-2.68-6.828-2.7z" fill="#000000"/>
  <path d="M12.186 6.5c-1.5 0-2.7 1.2-2.7 2.7s1.2 2.7 2.7 2.7 2.7-1.2 2.7-2.7-1.2-2.7-2.7-2.7zm0 3.6c-.5 0-.9-.4-.9-.9s.4-.9.9-.9.9.4.9.9-.4.9-.9.9z" fill="#000000"/>
</svg>
